<mxfile host="app.diagrams.net" modified="2024-01-30T16:41:04.199Z" agent="Mozilla/5.0 (Linux; Android 10; K) AppleWebKit/537.36 (KHTML, like Gecko) Chrome/120.0.0.0 Mobile Safari/537.36" version="23.0.2" etag="e984G7UO8cyH2NwVke7v" type="github">
  <diagram name="Page-1" id="8JF8CUP4b_DkYY_kftF4">
    <mxGraphModel>
      <root>
        <mxCell id="0" />
        <mxCell id="1" parent="0" />
      </root>
    </mxGraphModel>
  </diagram>
</mxfile>
